<svg xmlns="http://www.w3.org/2000/svg" xmlns:xlink="http://www.w3.org/1999/xlink" width="500" zoomAndPan="magnify" viewBox="0 0 375 374.999991" height="500" preserveAspectRatio="xMidYMid meet" version="1.0"><defs><clipPath id="5c9bdf8380"><path d="M 156 114.378906 L 229 114.378906 L 229 189 L 156 189 Z M 156 114.378906 " clip-rule="nonzero"/></clipPath><clipPath id="23fe10b1aa"><path d="M 188 196 L 194 196 L 194 198.378906 L 188 198.378906 Z M 188 196 " clip-rule="nonzero"/></clipPath><clipPath id="f2da846012"><path d="M 129.597656 151 L 136 151 L 136 158 L 129.597656 158 Z M 129.597656 151 " clip-rule="nonzero"/></clipPath><clipPath id="67bb68a5d0"><path d="M 184.160156 140.796875 L 192.542969 140.796875 L 192.542969 147.515625 L 184.160156 147.515625 Z M 184.160156 140.796875 " clip-rule="nonzero"/></clipPath><clipPath id="5def004aa1"><path d="M 0.160156 0.796875 L 8.542969 0.796875 L 8.542969 7.515625 L 0.160156 7.515625 Z M 0.160156 0.796875 " clip-rule="nonzero"/></clipPath><clipPath id="e599b8df0f"><rect x="0" width="9" y="0" height="8"/></clipPath></defs><path fill="#6258b4" d="M 210.679688 148.453125 C 210.679688 148.351562 210.660156 148.253906 210.660156 148.15625 C 210.144531 141.554688 205.683594 135.46875 199.675781 132.671875 C 193.570312 129.835938 186.117188 130.332031 180.226562 133.601562 C 176.898438 135.445312 173.984375 138.203125 172.535156 141.730469 C 174.183594 141.710938 175.847656 141.691406 177.492188 141.671875 C 177.492188 143.953125 177.492188 146.210938 177.511719 148.492188 C 175.253906 148.511719 172.972656 148.53125 170.710938 148.550781 C 170.710938 150.949219 170.734375 153.347656 170.734375 155.746094 C 172.953125 155.707031 175.191406 155.765625 177.414062 155.925781 C 177.472656 158.207031 177.53125 160.484375 177.613281 162.746094 C 176.996094 162.46875 176.34375 162.191406 175.667969 162.269531 C 174.996094 162.347656 174.359375 162.984375 174.5 163.636719 C 174.558594 163.894531 174.71875 164.113281 174.875 164.332031 C 177.890625 168.453125 178.859375 173.570312 180.367188 178.347656 C 181.039062 180.46875 181.695312 183.34375 183.597656 184.691406 C 185.480469 186.039062 187.980469 186.195312 190.21875 186.296875 C 192.441406 186.394531 194.777344 186.472656 196.722656 185.402344 C 198.445312 184.433594 199.597656 182.667969 200.289062 180.84375 C 201.003906 179 201.339844 177.039062 201.855469 175.15625 C 203.105469 170.59375 205.425781 166.433594 207.386719 162.128906 C 209.332031 157.789062 210.957031 153.171875 210.679688 148.453125 Z M 184.789062 153.269531 L 184.789062 155.667969 L 177.890625 155.667969 L 177.890625 153.785156 C 177.890625 153.726562 177.890625 153.664062 177.890625 153.625 C 177.890625 153.488281 177.890625 153.328125 177.890625 153.191406 L 177.890625 148.789062 L 184.789062 148.789062 L 184.789062 150.214844 C 184.828125 151.207031 184.808594 152.238281 184.789062 153.269531 Z M 190.835938 146.609375 L 185.382812 146.609375 L 185.382812 141.15625 L 190.835938 141.15625 Z M 206.574219 153.902344 C 206.535156 154.101562 206.515625 154.28125 206.476562 154.476562 L 206.496094 154.519531 C 205.722656 159.234375 202.75 163.160156 201.121094 167.601562 C 198.386719 172.320312 199.320312 180.429688 193.410156 182.609375 C 193.429688 182.390625 193.449219 181.953125 193.472656 181.738281 C 196.722656 178.167969 196.703125 172.695312 198.703125 168.394531 C 200.371094 163.519531 203.917969 159.375 204.453125 154.101562 C 204.808594 151.625 205.066406 149.007812 204.492188 146.546875 C 203.027344 141.375 199.101562 137.332031 194.285156 135.089844 C 194.542969 135.128906 199.753906 136.179688 203.402344 140.363281 C 205.878906 143.179688 207.625 147.480469 206.574219 153.902344 Z M 206.574219 153.902344 " fill-opacity="1" fill-rule="nonzero"/><g clip-path="url(#5c9bdf8380)"><path fill="#6258b4" d="M 228.519531 148.847656 C 227.925781 142.941406 225.960938 137.171875 222.769531 132.117188 C 221.164062 129.558594 219.242188 127.21875 217.082031 125.117188 C 210.125 118.359375 200.964844 114.550781 191.25 114.492188 C 183.140625 114.433594 174.339844 116.832031 167.898438 121.945312 C 162.941406 125.890625 158.601562 130.808594 156.179688 136.734375 C 159.175781 136.675781 162.167969 136.734375 165.160156 136.695312 C 165.378906 136.695312 166.53125 134.613281 166.726562 134.355469 C 167.324219 133.5625 167.9375 132.808594 168.609375 132.097656 C 169.980469 130.628906 171.503906 129.300781 173.132812 128.132812 C 181.496094 122.183594 192.679688 120.617188 202.195312 124.664062 C 208.773438 127.476562 214.304688 132.652344 217.558594 139.035156 C 221.363281 146.507812 221.800781 155.628906 218.746094 163.4375 C 217.933594 165.519531 216.882812 167.542969 215.554688 169.347656 C 214.386719 170.953125 213.078125 172.457031 211.667969 173.847656 C 210.957031 174.558594 210.203125 175.234375 209.429688 175.910156 C 209.050781 176.226562 208.675781 176.542969 208.300781 176.839844 C 208 177.078125 207.328125 177.414062 207.148438 177.730469 C 205.523438 180.566406 205.40625 184.3125 203.046875 186.832031 C 201.222656 189.84375 205.464844 187.226562 206.929688 186.832031 C 211.988281 184.414062 216.289062 180.804688 220.054688 176.679688 C 223.445312 172.972656 225.882812 167.78125 227.269531 163.023438 C 228.597656 158.382812 228.996094 153.566406 228.519531 148.847656 Z M 228.519531 148.847656 " fill-opacity="1" fill-rule="nonzero"/></g><path fill="#6258b4" d="M 172.535156 176.1875 C 168.890625 173.429688 165.996094 169.800781 163.832031 165.777344 C 161.632812 165.34375 156.953125 164.507812 155.230469 165.796875 C 156.320312 169.007812 158.183594 171.882812 159.867188 174.796875 C 163.617188 179.457031 168.074219 183.601562 173.449219 186.296875 C 175.074219 186.515625 178.941406 189.765625 178.859375 187.226562 C 175.171875 184.472656 176.621094 178.464844 172.535156 176.1875 Z M 172.535156 176.1875 " fill-opacity="1" fill-rule="nonzero"/><g clip-path="url(#23fe10b1aa)"><path fill="#6258b4" d="M 188.355469 196.226562 C 188.414062 198.667969 192.164062 198.6875 193.191406 196.960938 C 192.121094 195.535156 189.902344 196.503906 188.355469 196.226562 Z M 188.355469 196.226562 " fill-opacity="1" fill-rule="nonzero"/></g><path fill="#6258b4" d="M 161.496094 155.25 L 168.015625 155.25 L 168.015625 161.773438 L 161.496094 161.773438 Z M 161.496094 155.25 " fill-opacity="1" fill-rule="nonzero"/><path fill="#6258b4" d="M 150.691406 156.699219 L 156.4375 156.699219 L 156.4375 162.449219 L 150.691406 162.449219 Z M 150.691406 156.699219 " fill-opacity="1" fill-rule="nonzero"/><path fill="#6258b4" d="M 152.019531 141.652344 L 161.96875 141.652344 L 161.96875 151.605469 L 152.019531 151.605469 Z M 152.019531 141.652344 " fill-opacity="1" fill-rule="nonzero"/><path fill="#6258b4" d="M 138.757812 150.214844 L 147.738281 150.214844 L 147.738281 159.195312 L 138.757812 159.195312 Z M 138.757812 150.214844 " fill-opacity="1" fill-rule="nonzero"/><path fill="#6258b4" d="M 133.761719 142.027344 L 139.210938 142.027344 L 139.210938 147.480469 L 133.761719 147.480469 Z M 133.761719 142.027344 " fill-opacity="1" fill-rule="nonzero"/><path fill="#6258b4" d="M 142.78125 137.269531 L 149.300781 137.269531 L 149.300781 143.792969 L 142.78125 143.792969 Z M 142.78125 137.269531 " fill-opacity="1" fill-rule="nonzero"/><g clip-path="url(#f2da846012)"><path fill="#6258b4" d="M 129.597656 151.585938 L 135.207031 151.585938 L 135.207031 157.195312 L 129.597656 157.195312 Z M 129.597656 151.585938 " fill-opacity="1" fill-rule="nonzero"/></g><path fill="#6258b4" d="M 197 194.027344 C 196.898438 193.691406 196.582031 193.453125 196.226562 193.472656 L 185.125 193.570312 C 184.667969 193.570312 184.3125 193.96875 184.332031 194.425781 C 184.351562 194.859375 184.707031 195.175781 185.144531 195.175781 L 196.265625 195.15625 C 196.800781 195.15625 197.199219 194.621094 197.039062 194.105469 Z M 197 194.027344 " fill-opacity="1" fill-rule="nonzero"/><path fill="#6258b4" d="M 185.519531 191.746094 C 185.542969 192.183594 185.820312 192.5 186.175781 192.5 L 195.195312 192.402344 C 195.632812 192.402344 195.949219 191.867188 195.828125 191.351562 L 195.808594 191.273438 C 195.730469 190.933594 195.472656 190.71875 195.175781 190.71875 L 186.175781 190.894531 C 185.796875 190.894531 185.5 191.292969 185.519531 191.746094 Z M 185.519531 191.746094 " fill-opacity="1" fill-rule="nonzero"/><path fill="#6258b4" d="M 194.820312 189.507812 C 195.214844 189.507812 195.511719 189.050781 195.394531 188.597656 L 195.375 188.515625 C 195.292969 188.21875 195.058594 188.019531 194.800781 188.019531 L 186.550781 188.160156 C 186.214844 188.160156 185.9375 188.496094 185.957031 188.894531 C 185.976562 189.269531 186.234375 189.546875 186.550781 189.546875 Z M 194.820312 189.507812 " fill-opacity="1" fill-rule="nonzero"/><g clip-path="url(#67bb68a5d0)"><g transform="matrix(1, 0, 0, 1, 184, 140)"><g clip-path="url(#e599b8df0f)"><g clip-path="url(#5def004aa1)"><path fill="#6258b4" d="M 0.160156 0.796875 L 8.53125 0.796875 L 8.53125 7.515625 L 0.160156 7.515625 Z M 0.160156 0.796875 " fill-opacity="1" fill-rule="nonzero"/></g></g></g></g></svg>